<?xml version="1.0" encoding="utf-8"?>
<!-- Generator: Adobe Illustrator 19.2.0, SVG Export Plug-In . SVG Version: 6.00 Build 0)  -->
<svg version="1.1" id="logo" xmlns="http://www.w3.org/2000/svg" xmlns:xlink="http://www.w3.org/1999/xlink" x="0px" y="0px"
	 viewBox="0 0 226.2 82.5" style="enable-background:new 0 0 226.2 82.5;" xml:space="preserve">
<style type="text/css">
    .st0{fill:#000;}
</style>
<g>
	<path class="st0" d="M23.9,81.3L21.8,64H10.7L8.2,81.3H0L12.1,1.2h9l11.7,80.1H23.9z M16.5,20.2l-4.7,35.7h8.9L16.5,20.2z"/>
	<path class="st0" d="M79.4,82c-5.8,0-8.1-1.9-8.1-8.7V52.7c0-4.1-1.9-6.6-5.5-6.6h-6.6v35.2h-8.8V1.2h15.9
		c7.5,0,13.3,3.7,13.3,14.4v15.3c0,5.9-1.7,9.9-6.7,11.4c4.9,1.6,7,6.1,7,11.3V73c0,2.2,0.5,3.1,2.2,3.1V82H79.4z M71,15
		c0-3.7-1.6-5.7-4.8-5.7h-7v29.1h6.3c3.4,0,5.5-2.4,5.5-6.6V15z"/>
	<path class="st0" d="M114.7,82.5c-9.4,0-15.3-7.1-15.3-16.5V16.5c0-9.3,5.9-16.5,15.3-16.5s14.7,6.9,14.7,16.1v13.1h-7.6v-14
		c0-4-2.4-7-6.7-7c-4.6,0-7,3-7,6.9v52.2c0,4,2.4,6.9,7,6.9c4.3,0,6.7-2.9,6.7-7V53.2h7.6v13.2C129.4,75.6,124.1,82.5,114.7,82.5z"
		/>
	<path class="st0" d="M171.3,81.3V45.6h-13.6v35.7h-8.8V1.2h8.8v36.3h13.6V1.2h8.5v80.1H171.3z"/>
	<path class="st0" d="M200.7,81.3V1.2h25.5v8.1h-16.8V36h12.1v7.8h-12.1v29.5h16.8v8.1H200.7z"/>
</g>
</svg>
